<svg viewBox="0 -21 512 512" xmlns="http://www.w3.org/2000/svg"><path d="M504.5 238.395c0 41.832-32.637 77.253-55.531 112.75-22.735 35.246-40.922 79.636-77.164 99.523-37.203 20.418-82.754 11.187-124.543 5.727-40.285-5.266-84.7 1.343-117.735-17.387-35.129-19.918-50.863-61.258-71.425-94.113C38.023 312.816 7.5 280.578 7.5 238.395c0-40.344 30.305-76.957 49.156-113.407 19.504-37.703 32.922-83.593 66.04-104.367C157.562-1.246 200.847 8.45 243.21 20.11c42.262 11.637 88.137 6.016 121.715 22.387 40.246 19.625 60.613 58.922 83.75 88.594 24.039 30.832 55.824 61.734 55.824 107.305zm0 0" fill="#d7abf4"/><path d="M315.395 418.277c-15.118 0-31.583-2.28-49.012-4.699-4.461-.617-42.719-4.273-56.742-4.777-23.13-.824-44.98-1.602-57.918-8.938-15.953-9.047-27.82-30.316-40.383-52.84-4.762-8.535-25.281-41.437-30.375-48.757C65.69 276.305 52.5 257.344 52.5 238.39c0-17.48 12.906-39.07 26.574-61.93 5.918-9.902 27.387-51.04 31.871-60.899 10.782-23.699 21.934-48.207 35.66-56.816 6.723-4.215 14.868-6.18 25.63-6.18 17.831 0 39.82 5.641 59.03 10.93 22.016 6.063 43.864 8.149 63.137 9.988 20.078 1.918 39.047 3.73 50.801 9.461 21.012 10.246 35.863 31.211 51.586 53.407 5.234 7.394 24.32 32.332 28.2 37.085 21.476 26.282 34.511 43.77 34.511 64.954 0 18.879-15.61 41.093-32.133 64.613-5.387 7.664-27.555 42.281-32.82 51.367-14.203 24.5-27.617 47.645-44.39 56.848-8.778 4.816-19.821 7.058-34.762 7.058zm0 0" fill="#c596ea"/><path d="M382.43 238.395c0 75.382-61.114 136.496-136.496 136.496-75.387 0-136.496-61.114-136.496-136.496 0-75.387 61.109-136.497 136.496-136.497 75.382 0 136.496 61.11 136.496 136.497zm0 0" fill="#bdfaff"/><path d="M168.61 399.055c0 9.836-7.973 17.812-17.81 17.812-9.835 0-17.808-7.976-17.808-17.812 0-9.836 7.973-17.809 17.809-17.809 9.836 0 17.808 7.973 17.808 17.809zm0 0" fill="#ffeb99"/><path d="M344.148 411.895c0 9.585-7.77 17.355-17.351 17.355-9.586 0-17.356-7.77-17.356-17.355 0-9.586 7.77-17.356 17.356-17.356 9.582 0 17.351 7.77 17.351 17.356zm0 0" fill="#b1ef97"/><path d="M368.8 90.531c0 9.582-7.773 17.352-17.355 17.352-9.586 0-17.355-7.77-17.355-17.352 0-9.586 7.77-17.355 17.355-17.355 9.582 0 17.356 7.77 17.356 17.355zm0 0" fill="#ffeb99"/><path d="M153.531 96.98c-6.082-1.18-12.168 2.141-14.465 7.895-3.074 7.695-11.8 11.438-19.496 8.363-7.691-3.074-11.437-11.8-8.363-19.492 7.633-19.11 27.836-30.137 48.035-26.215 8.133 1.574 13.446 9.45 11.871 17.582-2.015 10.414-14.015 12.559-17.582 11.867zm0 0" fill="#b1ef97"/><path d="M439.7 233.77c.917-6.13-2.665-12.067-8.512-14.11-7.82-2.738-11.942-11.293-9.204-19.113s11.293-11.942 19.114-9.203c19.422 6.797 31.312 26.504 28.273 46.855-1.223 8.192-8.855 13.84-17.05 12.621-10.489-1.566-13.157-13.46-12.622-17.05zm0 0" fill="#a0f0f2"/><g fill="#91e8e8"><path d="M229.16 323.34c0 8.512-6.898 15.41-15.406 15.41-8.512 0-15.41-6.898-15.41-15.41 0-8.508 6.898-15.406 15.41-15.406 8.508 0 15.406 6.898 15.406 15.406zm0 0M334.5 296.398c0 8.512-6.898 15.41-15.41 15.41s-15.41-6.898-15.41-15.41c0-8.511 6.898-15.41 15.41-15.41s15.41 6.899 15.41 15.41zm0 0M256 157.348c0 8.511-6.898 15.41-15.41 15.41s-15.41-6.899-15.41-15.41c0-8.512 6.898-15.41 15.41-15.41s15.41 6.898 15.41 15.41zm0 0"/></g><path d="M326.59 248.191c4.14 0 7.5-3.359 7.5-7.5v-12.453a7.5 7.5 0 10-15 0v12.453a7.5 7.5 0 007.5 7.5zm0 0M172.773 240.691v-12.453a7.5 7.5 0 10-15 0v12.453a7.5 7.5 0 1015 0zm0 0M217.09 236.098a7.5 7.5 0 001.328 10.523 44.834 44.834 0 0027.516 9.422c9.707 0 19.414-3.14 27.511-9.422a7.5 7.5 0 001.328-10.523 7.495 7.495 0 00-10.52-1.328 29.88 29.88 0 01-36.64 0c-3.273-2.54-7.988-1.946-10.523 1.328zm0 0"/><path d="M465.648 140.223c-3.867-4.735-20.898-26.989-26.02-34.22-17.968-25.366-38.335-54.116-71.417-70.25-20.305-9.898-43.867-12.148-68.816-14.53-17.985-1.72-36.579-3.493-54.196-8.344-45.515-12.531-89.437-21.852-126.488 1.39-27.09 16.989-41.559 48.797-55.55 79.555-4.22 9.266-23.384 46.055-29.15 55.7C17.29 177.491 0 206.413 0 238.39c0 35.414 20.117 64.336 37.863 89.851 4.957 7.121 22.98 36.024 27.63 44.36 15.53 27.843 31.593 56.632 60.335 72.93 24.117 13.675 53.516 14.722 81.942 15.738 12.804.457 35.91 2.007 51.398 4.308 18.727 2.785 37.8 5.242 56.437 5.242 20.786 0 41.055-3.285 59.81-13.578 24.257-13.312 40.343-36.133 54.112-58.808a7.504 7.504 0 00-2.52-10.305 7.504 7.504 0 00-10.304 2.516c-12.687 20.898-27.344 41.832-48.508 53.445-31.218 17.137-69.574 10.527-106.965 6.633-11.609-1.211-39.773-3.977-52.925-4.446-27.852-.992-54.157-1.933-75.078-13.793-25.09-14.226-40.114-41.152-54.637-67.191-4.535-8.129-23.574-38.66-28.41-45.617C32.883 294.813 15 269.102 15 238.39c0-27.836 16.21-54.95 31.887-81.172 5.629-9.414 25.633-47.746 29.925-57.184 13.68-30.066 26.598-58.46 49.872-73.058 31.886-20.004 72.375-11.243 114.535.363 18.875 5.195 38.129 7.035 56.75 8.812 23.558 2.25 45.808 4.375 63.672 13.086 29.632 14.45 47.992 40.367 65.75 65.434 5.222 7.375 22.89 30.45 26.64 35.039C475.156 175.57 497 202.309 497 238.39c0 30.734-19.8 58.918-38.95 86.172-5.175 7.367-21.433 32.152-25.21 38.578a7.492 7.492 0 002.656 10.265 7.502 7.502 0 0010.27-2.656c3.675-6.246 19.234-29.984 24.558-37.562C490.812 304.023 512 273.868 512 238.39c0-41.43-24.625-71.575-46.352-98.168zm0 0"/><path d="M245.934 94.395c-41.524 0-81.036 17.937-108.403 49.21a7.504 7.504 0 00.703 10.586 7.505 7.505 0 0010.586-.707c24.516-28.02 59.914-44.09 97.114-44.09 71.129 0 128.996 57.868 128.996 128.997s-57.871 128.996-128.996 128.996c-71.13 0-128.996-57.867-128.996-128.996 0-21.16 5.23-42.145 15.132-60.68a7.499 7.499 0 00-3.082-10.149c-3.652-1.953-8.195-.57-10.148 3.083-11.059 20.703-16.903 44.128-16.903 67.746 0 79.398 64.598 143.996 143.997 143.996 79.398 0 143.996-64.598 143.996-143.996S325.332 94.395 245.934 94.395zm0 0M150.8 409.367c-4.804 0-8.929-3.258-10.03-7.922a7.5 7.5 0 00-14.598 3.453c2.71 11.461 12.84 19.47 24.633 19.47 13.953 0 25.308-11.356 25.308-25.313 0-13.953-11.355-25.309-25.308-25.309a7.497 7.497 0 00-7.5 7.5 7.5 7.5 0 007.5 7.5c5.683 0 10.308 4.625 10.308 10.309-.004 5.687-4.629 10.312-10.312 10.312zm0 0M326.797 387.04c-13.707 0-24.856 11.147-24.856 24.855 0 13.703 11.149 24.855 24.856 24.855 13.703 0 24.851-11.152 24.851-24.855 0-13.707-11.148-24.856-24.851-24.856zm0 34.71c-5.438 0-9.856-4.422-9.856-9.855 0-5.434 4.418-9.856 9.856-9.856 5.433 0 9.851 4.422 9.851 9.856 0 5.433-4.421 9.855-9.851 9.855zm0 0M376.3 90.531c0-13.707-11.152-24.855-24.855-24.855-13.707 0-24.855 11.148-24.855 24.855 0 13.703 11.148 24.852 24.855 24.852 13.703 0 24.856-11.149 24.856-24.852zm-34.71 0c0-5.437 4.422-9.855 9.851-9.855 5.438 0 9.856 4.422 9.856 9.855s-4.418 9.852-9.856 9.852c-5.43 0-9.851-4.418-9.851-9.852zm0 0M146.031 107.656c1.04-2.379 3.52-3.8 6.07-3.312 3.895.761 9.395-.168 14.012-2.356 6.653-3.152 11.043-8.636 12.364-15.449 2.359-12.176-5.625-24.008-17.805-26.371-23.73-4.61-47.461 8.348-56.43 30.797-4.605 11.52 1.024 24.637 12.547 29.242 2.73 1.09 20.746 6.879 29.242-12.55zm-27.86-11.129c5.45-13.636 18.653-22.285 32.903-22.285 2.23 0 13.969.45 12.676 9.442-.746 5.191-5.492 6.25-8.906 5.914-9.57-1.801-19.125 3.437-22.742 12.496-1.536 3.84-5.907 5.715-9.747 4.183-3.84-1.535-5.718-5.91-4.183-9.75zm0 0M432.281 232.66c-.586 3.926.578 9.38 2.965 13.899 3.438 6.507 10.82 11.925 19.3 11.925 10.954 0 20.579-8.03 22.243-19.18 3.57-23.906-10.398-47.054-33.215-55.038-11.715-4.098-24.57 2.093-28.668 13.8-1.984 5.676-1.644 11.782.961 17.196 2.61 5.414 7.168 9.492 12.844 11.476a5.427 5.427 0 013.57 5.922zm-3.219-29.637c1.368-3.906 5.66-5.968 9.56-4.601 16.026 5.61 25.843 21.871 23.331 38.668-.61 4.09-4.426 6.926-8.523 6.312-5.188-.773-7.125-4.285-6.293-8.644 1.383-9.64-4.301-18.856-13.473-22.18-6.348-2.3-5.262-7.664-4.602-9.555zm0 0"/><path d="M190.844 323.344c0 12.633 10.273 22.91 22.91 22.91 12.633 0 22.906-10.277 22.906-22.91s-10.273-22.91-22.906-22.91c-12.637-.004-22.91 10.277-22.91 22.91zm30.816 0c0 4.36-3.547 7.91-7.906 7.91-4.363 0-7.91-3.55-7.91-7.91 0-4.364 3.547-7.91 7.91-7.91 4.36-.004 7.906 3.546 7.906 7.91zm0 0M296.18 296.398c0 12.633 10.277 22.91 22.91 22.91 12.633 0 22.91-10.277 22.91-22.91 0-12.632-10.277-22.91-22.91-22.91-12.633 0-22.91 10.278-22.91 22.91zm22.91-7.91c4.36 0 7.91 3.551 7.91 7.91 0 4.36-3.55 7.91-7.91 7.91-4.363 0-7.91-3.55-7.91-7.91 0-4.359 3.547-7.91 7.91-7.91zm0 0M240.59 180.258c12.633 0 22.91-10.278 22.91-22.91 0-12.633-10.277-22.91-22.91-22.91-12.633 0-22.91 10.277-22.91 22.91 0 12.632 10.277 22.91 22.91 22.91zm0-30.82c4.36 0 7.91 3.546 7.91 7.91 0 4.359-3.55 7.91-7.91 7.91-4.363 0-7.91-3.551-7.91-7.91 0-4.364 3.547-7.91 7.91-7.91zm0 0"/></svg>