<svg height="512" viewBox="0 0 64 64" width="512" xmlns="http://www.w3.org/2000/svg"><path d="M63 63H2a1 1 0 01-1-1V1h2v60h60z" fill="#4472b2"/><path d="M7 55h6v2H7zM7 45h6v2H7zM17 45h46v2H17zM7 35h6v2H7zM17 35h46v2H17zM7 25h6v2H7zM17 25h46v2H17zM7 15h6v2H7zM17 15h46v2H17zM7 5h6v2H7zM17 5h46v2H17zM17 55h46v2H17z" fill="#4472b2"/><path d="M28.335 53a4.343 4.343 0 01-4.072-2.853l-3.202-8.806 1.879-.684 3.202 8.806A2.34 2.34 0 0028.335 51a2.32 2.32 0 002.276-1.819l5.525-24.47A6.012 6.012 0 0142.03 20a6.024 6.024 0 015.873 4.624l6.068 25.142-1.943.469-6.068-25.141A4.032 4.032 0 0042.03 22a4.02 4.02 0 00-3.942 3.151l-5.525 24.47A4.311 4.311 0 0128.335 53z" fill="#f5b953"/><path d="M36.146 32a7.578 7.578 0 01-7.363-5.749l-1.569-6.277A10.514 10.514 0 0017 12v-2c5.76 0 10.757 3.902 12.152 9.489l1.569 6.276A5.584 5.584 0 0036.146 30a5.564 5.564 0 005.338-3.933l7.562-24.363 1.91.593-7.562 24.363A7.555 7.555 0 0136.146 32z" fill="#78b75b"/></svg>