<svg xmlns="http://www.w3.org/2000/svg" width="512" height="512" viewBox="0 0 61 60"><g xmlns="http://www.w3.org/2000/svg" fill="none"><path d="M40 9.51l-19 8-19-8c13.084-5.517 2.529-1.061 15.02-6.32h7.96C37.35 8.4 27.029 4.041 40 9.51z" fill="#28a745" data-original="#00838f"/><path d="M59 34.51c-.28.109-5.085 2.137-19 8l-19-8c12.944-5.458 2.678-1.123 15.02-6.32h7.96c12.492 5.26 2.02.838 15.02 6.32z" fill="#007bff" data-original="#6a1b9a"/><path d="M40 42.51V59L2 43c0-17.695-.077-15.82.18-16.42C25.864 36.56 17.157 32.892 40 42.51z" fill="#007bff" data-original="#9d27b0"/><path d="M21 17.51v17c-13.915-5.863-18.72-7.891-19-8v-17z" fill="#28a745" data-original="#00bcd4"/><path d="M40 9.51V26c-2.47 0-4.2 1.09-4 2.2-1.96.83-3.35 1.41-4.35 1.83-.21-.02-.43-.03-.65-.03-2.31 0-3.97.95-4.01 1.98-1.06.45-2.83 1.2-5.99 2.53v-17z" fill="#28a745" data-original="#00838f"/><path d="M59 51l-19 8V42.51c18.026-7.592 15.289-6.438 18.82-7.93.257.6.18-1.358.18 16.42z" fill="#007bff" data-original="#6a1b9a"/><path d="M25 3c0 1.871-4.771 2.73-7.12 1.25C15.745 2.93 17.707 1 21 1c2.21 0 4 .9 4 2zM16 7c0 1.871-4.771 2.73-7.12 1.25C6.745 6.93 8.707 5 12 5c2.21 0 4 .9 4 2zM25 11c0 1.871-4.771 2.73-7.12 1.25C15.745 10.93 17.707 9 21 9c2.21 0 4 .9 4 2zM34 7c0 1.871-4.771 2.73-7.12 1.25C24.745 6.93 26.707 5 30 5c2.21 0 4 .9 4 2z" fill="#28a745" data-original="#00bcd4"/><g fill="#9d27b0"><path d="M44 28c0 1.871-4.771 2.73-7.12 1.25C34.745 27.93 36.707 26 40 26c2.21 0 4 .9 4 2zM35 32c0 1.871-4.771 2.73-7.12 1.25C25.745 31.93 27.707 30 31 30c2.21 0 4 .9 4 2zM44 36c0 1.871-4.771 2.73-7.12 1.25C34.745 35.93 36.707 34 40 34c2.21 0 4 .9 4 2zM53 32c0 1.871-4.771 2.73-7.12 1.25C43.745 31.93 45.707 30 49 30c2.21 0 4 .9 4 2z" fill="#007bff" data-original="#9d27b0"/></g><g fill="#000"><path d="M16 11c0 1.71 2.149 3 5 3s5-1.29 5-3-2.149-3-5-3-5 1.29-5 3zm5-1c1.936 0 3 .751 3 1s-1.064 1-3 1-3-.751-3-1 1.064-1 3-1zM35 36c0 1.71 2.149 3 5 3s5-1.29 5-3-2.149-3-5-3-5 1.29-5 3zm8 0c0 .249-1.064 1-3 1s-3-.751-3-1 1.064-1 3-1 3 .751 3 1z" data-original="#000000"/><path d="M60 35a.959.959 0 00-.042-.208 1 1 0 00-.569-1.2l-5.553-2.341C53.305 29.928 51.411 29 49 29c-.715 0 .268.332-4.079-1.5-.321-1.257-1.85-2.21-3.921-2.443 0-16.4.039-15.657-.078-15.935a1.042 1.042 0 00-.525-.529c-.192-.083.006 0-5.561-2.346C34.305 4.928 32.411 4 30 4c-.715 0 .268.332-4.079-1.5-.86-3.331-8.981-3.336-9.842 0C11.741 4.328 12.717 4 12 4c-2.411 0-4.3.928-4.836 2.247-2.79 1.177-5.7 2.4-5.56 2.346a.957.957 0 00-.488.473C.943 9.409 1 7.085 1 43a1 1 0 00.612.922C41.715 60.807 39.555 60 40 60c.338 0-.92.472 19.388-8.078a.779.779 0 00.431-.38c.25-.377.181.826.181-16.542zm-19 8.174l17-7.158v14.32l-17 7.158zM52 32c0 .249-1.064 1-3 1s-3-.751-3-1 1.064-1 3-1 3 .751 3 1zm-3 3a5.7 5.7 0 004.532-1.71l2.893 1.219L40 41.425l-16.425-6.916 2.893-1.219A5.7 5.7 0 0031 35c4.881 0 6.418-3.4 3.592-5.124l1.016-.428c1.833 2.074 6.952 2.073 8.784 0l1.016.428C42.554 31.615 44.177 35 49 35zm-13.921-7.5C30.741 29.328 31.717 29 31 29c-2.411 0-4.3.928-4.836 2.247L22 33V18.174l17-7.158v14.041c-2.071.233-3.6 1.186-3.921 2.443zM31 31c1.936 0 3 .751 3 1s-1.064 1-3 1-3-.751-3-1 1.064-1 3-1zM3 11.016l17 7.158V33L3 25.846zM43 28c0 .249-1.064 1-3 1s-3-.751-3-1 1.064-1 3-1 3 .751 3 1zM33 7c0 .249-1.064 1-3 1s-3-.751-3-1 1.064-1 3-1 3 .751 3 1zM21 2c1.936 0 3 .751 3 1s-1.064 1-3 1-3-.751-3-1 1.064-1 3-1zm-4.392 2.448c1.833 2.074 6.952 2.073 8.784 0l1.016.428A2.554 2.554 0 0025 7c0 3.354 7.44 4.054 9.532 1.29l2.892 1.219L21 16.425 4.576 9.509 7.468 8.29C9.558 11.051 17 10.357 17 7a2.554 2.554 0 00-1.408-2.124zM12 6c1.936 0 3 .751 3 1s-1.064 1-3 1-3-.751-3-1 1.064-1 3-1zM3 28.016l17.612 7.415c1.78.81-6.538-2.752 18.388 7.743v14.32L3 42.336z" data-original="#000000"/><path d="M36.4 52.083l-22-9.53a1 1 0 10-.794 1.835l22 9.529a1 1 0 10.794-1.834zM9.4 40.382l-3-1.3a1 1 0 10-.8 1.835l3 1.3a1 1 0 10.8-1.835z" data-original="#000000"/></g></g></svg>